<?xml version="1.0" encoding="UTF-8"?>
<svg width="100%" height="100%" viewBox="0 0 100 100" version="1.1" xmlns="http://www.w3.org/2000/svg" xmlns:xlink="http://www.w3.org/1999/xlink">
    <!-- Generator: Sketch 46.2 (44496) - http://www.bohemiancoding.com/sketch -->
    <title>Page 1</title>
    <desc>Created with Sketch.</desc>
    <defs></defs>
    <g id="Page-1" stroke="none" stroke-width="1" fill="none" fill-rule="evenodd">
        <g id="profile3" transform="translate(-945.000000, -129.000000)">
            <g id="Page-1" transform="translate(945.000000, 129.000000)">
                <path d="M1.22365854,49.6717073 C1.5797561,22.5595122 23.8456098,0.869268293 50.9602439,1.22292683 C78.07,1.57902439 99.7626829,23.8473171 99.4065854,50.9595122 C99.0504878,78.0717073 76.7846341,99.7619512 49.672439,99.4082927 C22.5602439,99.0521951 0.867560976,76.7839024 1.22365854,49.6717073 Z" id="Stroke-1" stroke="#000000" stroke-width="8"></path>
                <path d="M20.0856098,88.97 C20.2563415,75.974878 33.6929268,66.2626829 50.1026829,66.4797561 C66.514878,66.6943902 79.91,75.974878 79.7392683,88.97" id="Stroke-3" stroke="#000000" stroke-width="5"></path>
                <path d="M31.2458537,40.3860976 C31.384878,29.7836585 40.0921951,21.3007317 50.6946341,21.4397561 C61.2970732,21.5787805 69.777561,30.2860976 69.6385366,40.8885366 C69.4995122,51.4909756 60.7921951,59.9739024 50.1921951,59.834878 C39.5873171,59.6958537 31.1068293,50.9885366 31.2458537,40.3860976" id="Fill-5"></path>
                <path d="M31.2458537,40.3860976 C31.384878,29.7836585 40.0921951,21.3007317 50.6946341,21.4397561 C61.2970732,21.5787805 69.777561,30.2860976 69.6385366,40.8885366 C69.4995122,51.4909756 60.7921951,59.9739024 50.1921951,59.834878 C39.5873171,59.6958537 31.1068293,50.9885366 31.2458537,40.3860976 Z" id="Stroke-7" stroke="#000000" stroke-width="5"></path>
            </g>
        </g>
    </g>
</svg>