<svg width="56" height="56" viewBox="0 0 56 56" fill="none" xmlns="http://www.w3.org/2000/svg">
    <g clip-path="url(#clip0_114_12730)">
    <path d="M19.8803 53.8125H13.125C7.08444 53.8125 2.1875 48.9156 2.1875 42.875V13.125C2.1875 7.08433 7.08444 2.1875 13.125 2.1875H19.8803C13.8397 2.1875 8.94283 7.08433 8.94283 13.125V42.875C8.94283 48.9156 13.8397 53.8125 19.8803 53.8125Z" fill="#CCCCCC"/>
    <path d="M42.875 56H13.125C5.88788 56 0 50.1121 0 42.875V13.125C0 5.88788 5.88788 0 13.125 0H22.2031C25.9626 0 29.5442 1.5785 32.0297 4.3307C32.8394 5.22736 32.769 6.61063 31.8724 7.42033C30.9759 8.23003 29.5925 8.15959 28.7828 7.26305C27.1252 5.42762 24.7271 4.375 22.2031 4.375H13.125C8.30025 4.375 4.375 8.30025 4.375 13.125V42.875C4.375 47.6997 8.30025 51.625 13.125 51.625H42.875C47.6997 51.625 51.625 47.6997 51.625 42.875V22.0938C51.625 18.4752 48.6811 15.5312 45.0625 15.5312H19.9062C16.2877 15.5312 13.3438 18.4752 13.3438 22.0938V44.0781C13.2362 46.9774 9.07528 46.9753 8.96875 44.0781V22.0938C8.96875 16.0628 13.8753 11.1562 19.9062 11.1562H45.0625C51.0934 11.1562 56 16.0628 56 22.0938V42.875C56 50.1121 50.1121 56 42.875 56Z" fill="black"/>
    <path d="M32.3748 42.1112C31.1667 42.1112 30.1873 41.1318 30.1873 39.9237V35.2205H25.4842C22.5849 35.113 22.5871 30.9521 25.4842 30.8455H30.1873V26.1424C30.2949 23.2431 34.4558 23.2453 34.5623 26.1424V30.8455H39.2655C42.1648 30.9531 42.1626 35.114 39.2655 35.2205H34.5623V39.9237C34.5623 41.1318 33.583 42.1112 32.3748 42.1112Z" fill="#F22E3E"/>
    </g>
    <defs>
    <clipPath id="clip0_114_12730">
    <rect width="56" height="56" fill="white"/>
    </clipPath>
    </defs>
</svg>
