<svg width="56" height="56" viewBox="0 0 56 56" fill="none" xmlns="http://www.w3.org/2000/svg">
<path d="M21.4375 15.3125C21.4375 9.21463 25.6363 4.12081 31.2812 2.65344C30.2262 2.37923 29.1397 2.1875 28 2.1875C20.7624 2.1875 14.875 8.07494 14.875 15.3125C14.875 22.5501 20.7624 28.4375 28 28.4375C29.1397 28.4375 30.2262 28.2458 31.2812 27.9716C25.6363 26.5042 21.4375 21.4104 21.4375 15.3125Z" fill="#CCCCCC"/>
<path d="M12.6875 43.2513V40.6875C12.6875 39.4813 13.6688 38.5 14.875 38.5H19.25C20.4582 38.5 21.4375 37.5207 21.4375 36.3125C21.4375 35.1043 20.4582 34.125 19.25 34.125H14.875C11.2564 34.125 8.3125 37.0689 8.3125 40.6875V43.2513C5.76647 44.1543 3.9375 46.5858 3.9375 49.4375C3.9375 53.0561 6.88144 56 10.5 56C14.1186 56 17.0625 53.0561 17.0625 49.4375C17.0625 46.5858 15.2335 44.1544 12.6875 43.2513ZM10.5 51.625C9.29381 51.625 8.3125 50.6437 8.3125 49.4375C8.3125 48.2313 9.29381 47.25 10.5 47.25C11.7062 47.25 12.6875 48.2313 12.6875 49.4375C12.6875 50.6437 11.7062 51.625 10.5 51.625Z" fill="#F22E3E"/>
<path d="M41.125 34.125H36.75C35.5418 34.125 34.5625 35.1043 34.5625 36.3125C34.5625 37.5207 35.5418 38.5 36.75 38.5H41.125C42.3312 38.5 43.3125 39.4813 43.3125 40.6875V43.2513C40.7665 44.1543 38.9375 46.5858 38.9375 49.4375C38.9375 53.0561 41.8814 56 45.5 56C49.1186 56 52.0625 53.0561 52.0625 49.4375C52.0625 46.5858 50.2335 44.1544 47.6875 43.2513V40.6875C47.6875 37.0689 44.7436 34.125 41.125 34.125ZM45.5 51.625C44.2938 51.625 43.3125 50.6437 43.3125 49.4375C43.3125 48.2313 44.2938 47.25 45.5 47.25C46.7062 47.25 47.6875 48.2313 47.6875 49.4375C47.6875 50.6437 46.7062 51.625 45.5 51.625Z" fill="#F22E3E"/>
<path d="M28 21.875C31.6186 21.875 34.5625 18.9311 34.5625 15.3125C34.5625 11.6939 31.6186 8.75 28 8.75C24.3814 8.75 21.4375 11.6939 21.4375 15.3125C21.4375 18.9311 24.3814 21.875 28 21.875ZM28 13.125C29.2062 13.125 30.1875 14.1063 30.1875 15.3125C30.1875 16.5187 29.2062 17.5 28 17.5C26.7938 17.5 25.8125 16.5187 25.8125 15.3125C25.8125 14.1063 26.7938 13.125 28 13.125Z" fill="black"/>
<path d="M25.8125 30.468V43.2513C23.2665 44.1543 21.4375 46.5858 21.4375 49.4375C21.4375 53.0561 24.3814 56 28 56C31.6186 56 34.5625 53.0561 34.5625 49.4375C34.5625 46.5858 32.7335 44.1544 30.1875 43.2513V30.468C37.5982 29.4033 43.3125 23.0132 43.3125 15.3125C43.3125 6.86919 36.4433 0 28 0C19.5567 0 12.6875 6.86919 12.6875 15.3125C12.6875 23.0132 18.4018 29.4034 25.8125 30.468ZM28 51.625C26.7938 51.625 25.8125 50.6437 25.8125 49.4375C25.8125 48.2313 26.7938 47.25 28 47.25C29.2062 47.25 30.1875 48.2313 30.1875 49.4375C30.1875 50.6437 29.2062 51.625 28 51.625ZM28 4.375C34.031 4.375 38.9375 9.28156 38.9375 15.3125C38.9375 21.3434 34.031 26.25 28 26.25C21.969 26.25 17.0625 21.3434 17.0625 15.3125C17.0625 9.28156 21.969 4.375 28 4.375Z" fill="black"/>
</svg>
