<svg width="134" height="24" viewBox="0 0 134 24" fill="none" xmlns="http://www.w3.org/2000/svg">
<path d="M60.8895 9.19783V8.80078H60.8754C60.8836 8.93156 60.8895 9.06351 60.8895 9.19783Z" fill="white"/>
<path d="M60.8607 8.79903C60.8725 8.93099 60.8796 9.06412 60.8796 9.19843V9.1949C60.8796 9.06176 60.8737 8.92981 60.8654 8.79785H60.8607V8.79903Z" fill="white"/>
<path d="M52.0865 9.20018C52.0865 9.06469 52.0936 8.93156 52.1054 8.80078H52.0865V9.20018Z" fill="white"/>
<path d="M54.8894 15.2008H54.8765C53.8691 15.2008 52.9195 14.951 52.0865 14.5116V19.5883C52.0865 22.0248 54.0623 24.0006 56.4988 24.0006C58.9211 24.0006 60.8863 22.0366 60.8863 19.6131V9.20508C60.8863 12.5169 58.2013 15.2008 54.8906 15.2008H54.8894Z" fill="white"/>
<path d="M52.1054 8.80078C52.0936 8.93274 52.0865 9.06587 52.0865 9.20018V14.5102C52.9195 14.9497 53.8691 15.1995 54.8765 15.1995H54.8894C58.2013 15.1995 60.8852 12.5144 60.8852 9.20372V9.20018C60.8852 9.06469 60.8781 8.93156 60.8663 8.80078H52.1054Z" fill="white"/>
<path d="M52.0834 3.89679V0.00292969H48.8965C46.46 0.00292969 44.4842 1.97872 44.4842 4.41519C44.4842 6.83752 46.4482 8.80272 48.8717 8.80272H48.8988C49.0402 6.6714 50.2926 4.84522 52.0834 3.89797V3.89679Z" fill="white"/>
<path d="M64.0841 0.00292969H60.8842V8.80272H64.0841C66.5135 8.80272 68.4834 6.83281 68.4834 4.40341C68.4834 1.97401 66.5135 0.00410901 64.0841 0.00410901V0.00292969Z" fill="white"/>
<path d="M52.0877 0.00117933V3.89504C52.9242 3.45205 53.8785 3.19993 54.8906 3.19993C58.0693 3.19993 60.6684 5.67291 60.8722 8.79979H60.8863V0H52.0865L52.0877 0.00117933Z" fill="white"/>
<path d="M56.4816 4.80176C54.1865 4.80176 52.3026 6.55959 52.1012 8.80166H60.8621C60.6594 6.55959 58.7767 4.80176 56.4816 4.80176Z" fill="white"/>
<path d="M10.4005 0C9.85622 0 9.32132 0.0424045 8.80057 0.12252V13.1908C8.80057 9.88135 11.4833 7.19983 14.7916 7.19983C18.1093 7.19983 20.7991 9.8896 20.7991 13.2073V10.3986C20.7991 4.65615 16.1441 0 10.4005 0Z" fill="white"/>
<path d="M8.79979 19.6112V0.123047C3.8161 0.892395 0 5.20099 0 10.4003V19.5865C0 22.023 1.97579 23.9988 4.41226 23.9988C6.83459 23.9988 8.79979 22.0348 8.79979 19.6112Z" fill="white"/>
<path d="M16.399 9.59766C13.9696 9.59766 11.9997 11.5676 11.9997 13.997V19.5839C11.9997 22.0203 13.9755 23.9961 16.412 23.9961C18.8343 23.9961 20.7995 22.0321 20.7995 19.6086V13.997C20.7995 11.5676 18.8296 9.59766 16.4002 9.59766H16.399Z" fill="white"/>
<path d="M32.7939 7.51675V0C32.2496 0 31.7159 0.0424045 31.194 0.12252V11.5909C31.194 10.0168 31.8019 8.58653 32.7939 7.51675Z" fill="white"/>
<path d="M31.1932 19.6112V0.123047C26.2096 0.892395 22.3934 5.20099 22.3934 10.4003V19.5865C22.3934 22.023 24.3692 23.9988 26.8057 23.9988C29.228 23.9988 31.1932 22.0348 31.1932 19.6112Z" fill="white"/>
<path d="M32.7977 0C34.0901 0 35.3261 0.236803 36.4677 0.666837C37.1428 0.24505 37.9404 0 38.7958 0H32.7965H32.7977Z" fill="white"/>
<path d="M34.3953 6.2891V4.3993C34.3953 2.82526 35.2224 1.44443 36.4665 0.666837C35.3249 0.235625 34.089 0 32.7965 0V7.51675C33.2548 7.02309 33.7956 6.60721 34.3965 6.2891H34.3953Z" fill="white"/>
<path d="M43.1914 10.3967V10.0161C43.1914 10.0585 43.189 10.101 43.1879 10.1434C43.1902 10.2282 43.1914 10.3118 43.1914 10.3967Z" fill="white"/>
<path d="M42.0165 5.59869H43.1888V4.3993C43.1888 1.96991 41.2189 0 38.7895 0C37.9341 0 37.1366 0.24505 36.4615 0.666837C38.8638 1.57285 40.8419 3.34366 42.0177 5.59869H42.0165Z" fill="white"/>
<path d="M37.1825 5.59689C37.3203 5.59689 37.4558 5.60279 37.5901 5.61221C37.7256 5.60279 37.8611 5.59689 37.9978 5.59689H42.0177C40.8419 3.34187 38.8638 1.57106 36.4615 0.665039C35.2185 1.44263 34.3902 2.82346 34.3902 4.39751V6.2873C35.2244 5.84784 36.174 5.59689 37.1813 5.59689H37.1825Z" fill="white"/>
<path d="M43.1258 9.2545C43.1659 9.49485 43.1883 9.74109 43.1883 9.99204V5.59863H42.016C42.5968 6.71437 42.9821 7.9479 43.1247 9.2545H43.1258Z" fill="white"/>
<path d="M43.1291 9.2545C42.9865 7.9479 42.6013 6.71437 42.0204 5.59863H38.7993C40.9742 5.59863 42.7792 7.17973 43.1303 9.2545H43.1291Z" fill="white"/>
<path d="M37.9999 5.59863C37.8621 5.59863 37.7266 5.60452 37.5923 5.61395C37.7454 5.62455 37.8986 5.63986 38.0483 5.66107C38.2886 5.62101 38.5337 5.59863 38.7858 5.59863H37.9999Z" fill="white"/>
<path d="M42.1971 22.397H42.1936C41.3889 23.3737 40.1707 23.9969 38.8051 23.9969H38.811C40.1742 23.9969 41.3924 23.3737 42.1959 22.397H42.1971Z" fill="white"/>
<path d="M42.1982 22.3972C42.8203 21.6408 43.1938 20.6724 43.1938 19.6167V19.6108C43.1938 20.6688 42.8191 21.6397 42.1947 22.3984H42.1982V22.3972Z" fill="white"/>
<path d="M42.1919 22.397H35.4009C36.2092 23.3737 37.4309 23.9969 38.7976 23.9969H38.8035C40.1678 23.9969 41.3872 23.3737 42.1919 22.397Z" fill="white"/>
<path d="M37.9842 17.5987C37.0087 17.5987 36.0897 17.3642 35.2756 16.9507C34.7219 17.6859 34.3931 18.6001 34.3931 19.5921C34.3931 20.6584 34.7725 21.6363 35.4028 22.3986H42.1938C42.8183 21.641 43.1929 20.6702 43.1929 19.611V19.5921C43.1929 18.8746 43.0197 18.1972 42.7146 17.5987H37.9854H37.9842Z" fill="white"/>
<path d="M42.7198 17.5987C41.9929 16.1743 40.5131 15.1987 38.8047 15.1987H38.7918C37.3568 15.1987 36.0831 15.8868 35.2808 16.9507C36.0949 17.3642 37.0139 17.5987 37.9894 17.5987H42.7186H42.7198Z" fill="white"/>
<path d="M43.1879 10.1434C43.189 10.101 43.1914 10.0586 43.1914 10.0162V10.0103C43.1914 10.0538 43.189 10.0963 43.1879 10.1399V10.1446V10.1434Z" fill="white"/>
<path d="M43.1911 10.1421C43.1852 10.3483 43.1652 10.5497 43.1322 10.7477V10.7512C43.1664 10.5545 43.1852 10.3518 43.1911 10.1468V10.1421Z" fill="white"/>
<path d="M34.3931 9.99023V9.99377C34.3931 12.4267 36.3654 14.4002 38.7995 14.4002H38.8054C36.3701 14.4002 34.3955 12.4267 34.3931 9.99141V9.99023Z" fill="white"/>
<path d="M38.8051 14.3979H38.811C40.9812 14.3979 42.7815 12.8192 43.1302 10.7491V10.7456C42.7803 12.8192 40.9777 14.3979 38.8051 14.3979Z" fill="white"/>
<path d="M43.1911 10.1409C43.1923 10.0985 43.1946 10.0549 43.1946 10.0113V9.99242C43.1946 9.74147 43.1722 9.49523 43.1322 9.25488C43.164 9.54707 43.184 9.84162 43.1923 10.1409H43.1911Z" fill="white"/>
<path d="M38.7969 5.59981H38.7839C38.533 5.59981 38.2867 5.62219 38.0464 5.66224C40.6737 6.04044 42.7496 8.11874 43.1266 10.7461C43.1596 10.5481 43.1797 10.3467 43.1856 10.1405C43.1785 9.84241 43.1585 9.54669 43.1255 9.2545C42.7744 7.17973 40.9694 5.59863 38.7945 5.59863L38.7969 5.59981Z" fill="white"/>
<path d="M43.1293 10.7469C42.7523 8.11958 40.6752 6.04128 38.049 5.66309C35.9754 6.01418 34.3943 7.81679 34.3931 9.99052C34.3943 12.4258 36.3701 14.3993 38.8054 14.3993C40.978 14.3993 42.7806 12.8193 43.1305 10.7469H43.1293Z" fill="white"/>
<path d="M100.795 7.51675V0C100.25 0 99.7165 0.0424045 99.1946 0.12252V11.5909C99.1946 10.0168 99.8025 8.58653 100.795 7.51675Z" fill="white"/>
<path d="M99.1938 19.6112V0.123047C94.2101 0.892395 90.394 5.20099 90.394 10.4003V19.5865C90.394 22.023 92.3698 23.9988 94.8063 23.9988C97.2286 23.9988 99.1938 22.0348 99.1938 19.6112Z" fill="white"/>
<path d="M100.795 0C102.088 0 103.324 0.236803 104.465 0.666837C105.14 0.24505 105.938 0 106.793 0H100.794H100.795Z" fill="white"/>
<path d="M102.393 6.2891V4.3993C102.393 2.82526 103.22 1.44443 104.464 0.666837C103.322 0.235625 102.087 0 100.794 0V7.51675C101.252 7.02309 101.793 6.60721 102.394 6.2891H102.393Z" fill="white"/>
<path d="M107.506 2.45649C109.2 2.73101 110.569 3.97399 111.027 5.59869H111.192V4.3993C111.192 1.96991 109.222 0 106.793 0C105.938 0 105.14 0.24505 104.465 0.666837C105.583 1.08862 106.61 1.69775 107.507 2.45649H107.506Z" fill="white"/>
<path d="M106.787 2.3999H106.8C107.04 2.3999 107.277 2.41992 107.507 2.45762C106.61 1.69888 105.584 1.08976 104.465 0.667969C103.222 1.44556 102.394 2.82639 102.394 4.40044V6.29023C102.404 6.28434 102.415 6.27963 102.426 6.27374C102.682 4.09293 104.537 2.3999 106.787 2.3999Z" fill="white"/>
<path d="M111.192 6.79213V5.59863H111.027C111.135 5.97801 111.192 6.37859 111.192 6.79213Z" fill="white"/>
<path d="M110.201 22.397H110.197C109.392 23.3737 108.174 23.9969 106.809 23.9969H106.815C108.178 23.9969 109.396 23.3737 110.199 22.397H110.201Z" fill="white"/>
<path d="M110.196 22.3972C110.818 21.6408 111.191 20.6724 111.191 19.6167V19.6108C111.191 20.6688 110.817 21.6397 110.192 22.3984H110.196V22.3972Z" fill="white"/>
<path d="M110.201 22.397H103.41C104.219 23.3737 105.44 23.9969 106.807 23.9969H106.813C108.177 23.9969 109.397 23.3737 110.201 22.397Z" fill="white"/>
<path d="M102.394 16.4028V19.5921C102.394 20.6584 102.773 21.6363 103.403 22.3986H110.194C110.819 21.641 111.194 20.6702 111.194 19.611V17.5987H105.986C104.638 17.5987 103.395 17.1533 102.395 16.4028H102.394Z" fill="white"/>
<path d="M111.195 10.3967V10.0161C111.195 10.0585 111.193 10.101 111.191 10.1434C111.194 10.2282 111.195 10.3118 111.195 10.3967Z" fill="white"/>
<path d="M111.13 10.7494C111.17 11.0298 111.192 11.3161 111.192 11.6071V10.3983C111.192 10.3135 111.191 10.2287 111.189 10.145C111.183 10.35 111.163 10.5527 111.13 10.7494Z" fill="white"/>
<path d="M111.126 10.7507C110.778 12.822 108.977 14.3995 106.807 14.3995H106.794C104.361 14.3995 102.388 12.4273 102.388 9.99316V16.4036C103.388 17.1541 104.632 17.5995 105.979 17.5995H111.186V11.6085C111.186 11.3174 111.164 11.0311 111.124 10.7507H111.126Z" fill="white"/>
<path d="M110.027 5.60021H111.033C110.575 3.9755 109.207 2.73252 107.512 2.45801C108.54 3.32868 109.398 4.39493 110.026 5.60021H110.027Z" fill="white"/>
<path d="M106.788 2.39941C104.537 2.39941 102.683 4.09127 102.426 6.27326C103.252 5.84322 104.19 5.59933 105.186 5.59933C105.324 5.59933 105.46 5.60522 105.594 5.61465C105.73 5.60522 105.865 5.59933 106.002 5.59933H110.022C109.394 4.39405 108.536 3.32782 107.507 2.45714C107.278 2.41944 107.041 2.39941 106.801 2.39941H106.788Z" fill="white"/>
<path d="M110.02 5.59863C110.6 6.71437 110.986 7.9479 111.128 9.2545C111.168 9.49485 111.191 9.74109 111.191 9.99204V6.79213C111.191 6.37859 111.132 5.97801 111.026 5.59863H110.02Z" fill="white"/>
<path d="M111.13 9.2545C110.987 7.9479 110.602 6.71437 110.021 5.59863H106.8C108.975 5.59863 110.78 7.17973 111.131 9.2545H111.13Z" fill="white"/>
<path d="M106.001 5.59863C105.863 5.59863 105.727 5.60452 105.593 5.61395C105.746 5.62455 105.899 5.63986 106.049 5.66107C106.289 5.62101 106.534 5.59863 106.786 5.59863H106.001Z" fill="white"/>
<path d="M111.191 10.1434C111.193 10.101 111.195 10.0586 111.195 10.0162V10.0103C111.195 10.0538 111.193 10.0963 111.191 10.1399V10.1446V10.1434Z" fill="white"/>
<path d="M111.189 10.1421C111.183 10.3483 111.163 10.5497 111.13 10.7477V10.7512C111.164 10.5545 111.183 10.3518 111.189 10.1468V10.1421Z" fill="white"/>
<path d="M106.809 14.3979H106.815C108.985 14.3979 110.785 12.8192 111.134 10.7491V10.7456C110.784 12.8192 108.981 14.3979 106.809 14.3979Z" fill="white"/>
<path d="M102.394 9.99023V9.99377C102.394 12.4267 104.366 14.4002 106.8 14.4002H106.806C104.371 14.4002 102.396 12.4267 102.394 9.99141V9.99023Z" fill="white"/>
<path d="M111.189 10.1409C111.19 10.0985 111.192 10.0549 111.192 10.0113V9.99242C111.192 9.74147 111.17 9.49523 111.13 9.25488C111.162 9.54707 111.182 9.84162 111.19 10.1409H111.189Z" fill="white"/>
<path d="M106.8 5.59981H106.787C106.536 5.59981 106.29 5.62219 106.05 5.66224C108.677 6.04044 110.753 8.11874 111.13 10.7461C111.163 10.5481 111.183 10.3467 111.189 10.1405C111.182 9.84241 111.162 9.54669 111.129 9.2545C110.778 7.17973 108.973 5.59863 106.798 5.59863L106.8 5.59981Z" fill="white"/>
<path d="M111.139 10.7469C110.762 8.11958 108.685 6.04128 106.058 5.66309C103.985 6.01418 102.404 7.81679 102.403 9.99052C102.404 12.4258 104.38 14.3993 106.815 14.3993C108.987 14.3993 110.79 12.8193 111.14 10.7469H111.139Z" fill="white"/>
<path d="M78.3979 0.00292969C72.6543 0.00292969 67.9993 4.65908 67.9993 10.4015V13.6014C67.9993 19.345 72.6555 24 78.3979 24C84.1415 24 88.7965 19.3438 88.7965 13.6014V10.4015C88.7965 4.6579 84.1403 0.00292969 78.3979 0.00292969ZM82.7972 12.6789C82.7972 15.1083 80.8273 17.0782 78.3979 17.0782C75.9685 17.0782 73.9986 15.1083 73.9986 12.6789V11.3252C73.9986 8.8958 75.9685 6.92589 78.3979 6.92589C80.8273 6.92589 82.7972 8.8958 82.7972 11.3252V12.6789Z" fill="white"/>
<path d="M123.19 0C122.646 0 122.111 0.0424045 121.59 0.12252V13.1908C121.59 9.88135 124.273 7.19983 127.581 7.19983C130.899 7.19983 133.589 9.8896 133.589 13.2073V10.3986C133.589 4.65615 128.934 0 123.19 0Z" fill="white"/>
<path d="M133.587 13.9997V13.5991C133.587 13.6887 133.587 13.777 133.584 13.8666C133.585 13.9113 133.587 13.9549 133.587 13.9997Z" fill="white"/>
<path d="M117.202 15.199H121.589V0.123047C116.606 0.892395 112.789 5.20099 112.789 10.4003V13.6002C112.789 14.895 113.026 16.1333 113.459 17.2761C114.239 16.0296 115.623 15.199 117.202 15.199Z" fill="white"/>
<path d="M119.522 23.3327C120.181 23.5813 120.872 23.7651 121.587 23.8758V19.6108C121.587 21.1813 120.761 22.5575 119.522 23.3327Z" fill="white"/>
<path d="M121.584 23.9961H123.183C122.639 23.9961 122.105 23.9537 121.584 23.8735V23.9961Z" fill="white"/>
<path d="M124.784 19.5833V15.1958C124.784 16.0794 124.068 16.7958 123.184 16.7958C122.3 16.7958 121.584 16.0794 121.584 15.1958V23.8731C122.105 23.9532 122.64 23.9956 123.183 23.9956C124.478 23.9956 125.716 23.7588 126.86 23.3264C125.614 22.5464 124.784 21.1621 124.784 19.5833Z" fill="white"/>
<path d="M113.459 17.2729C114.513 20.0617 116.733 22.279 119.523 23.3299C120.763 22.5547 121.588 21.1786 121.588 19.6081V15.1958H117.2C115.622 15.1958 114.237 16.0252 113.457 17.2729H113.459Z" fill="white"/>
<path d="M132.92 17.2676C133.32 16.2049 133.554 15.0597 133.584 13.8638C133.514 11.4957 131.573 9.59766 129.188 9.59766C126.759 9.59766 124.789 11.5676 124.789 13.997V15.1963H129.188C130.763 15.1963 132.143 16.0234 132.921 17.2676H132.92Z" fill="white"/>
<path d="M126.862 23.3264C129.65 22.2719 131.866 20.0558 132.918 17.267C132.14 16.0241 130.76 15.1958 129.185 15.1958H124.786V19.5833C124.786 21.1621 125.616 22.5464 126.862 23.3264Z" fill="white"/>
</svg>
