<svg width="56" height="56" viewBox="0 0 56 56" fill="none" xmlns="http://www.w3.org/2000/svg">
    <g clip-path="url(#clip0_116_14662)">
    <path d="M8.77016 28.0177C8.76994 14.8878 18.5817 4.04953 31.2731 2.43528C16.0196 0.389389 2.09691 12.6077 2.21362 28.0178C2.10609 43.3895 16.0656 55.6555 31.289 53.5979C18.6315 51.9805 8.77038 41.1135 8.77016 28.0177Z" fill="#CCCCCC"/>
    <path d="M25.6638 32.7084C24.4197 32.7237 23.333 31.6187 23.3691 30.375C23.3743 29.757 23.6197 29.1778 24.0662 28.7387L32.7094 20.1756C33.5669 19.3261 33.5733 17.9422 32.7239 17.0848C31.8743 16.2274 30.4906 16.2209 29.6331 17.0704L20.9957 25.6279C19.7226 26.88 19.013 28.553 18.9983 30.3385C18.9833 32.1241 19.6647 33.8088 20.9168 35.0818C22.2233 36.4104 23.953 37.0765 25.6838 37.0765C27.3769 37.0764 29.071 36.439 30.3708 35.1609C30.381 35.1509 38.8533 26.4894 38.8533 26.4894C39.6974 25.6265 39.682 24.2426 38.8193 23.3987C37.9564 22.5548 36.5727 22.5699 35.7286 23.4328L27.2933 32.0567C26.8539 32.4822 26.2764 32.7094 25.6638 32.7084Z" fill="black"/>
    <path d="M28.1509 55.9922C28.1016 55.9969 28.2004 55.9922 28.1509 55.9922V55.9922Z" fill="black"/>
    <path d="M55.7032 24.1075C55.5344 22.9122 54.4279 22.0804 53.2335 22.2489C52.0382 22.4177 51.2062 23.5234 51.3749 24.7185C51.5341 25.8461 51.6118 26.9988 51.6058 28.1447C51.5996 29.3445 51.5023 30.5492 51.3167 31.7255C51.2076 32.4171 50.819 32.9957 50.2229 33.3543C49.6159 33.7196 48.8764 33.7946 48.1939 33.56C46.8604 33.1017 45.4634 32.8951 44.0397 32.9438C38.0177 33.1532 33.1364 38.0344 32.9268 44.0566C32.8774 45.4796 33.0846 46.8773 33.543 48.2109C33.7775 48.8933 33.7026 49.6329 33.3373 50.2398C32.9787 50.836 32.4002 51.2246 31.7087 51.3336C30.5322 51.5193 29.3273 51.6166 28.1275 51.6228C15.4545 51.9006 4.11776 40.7257 4.39871 28.0194C4.13601 15.3322 15.3154 4.1521 28.0032 4.41524C29.3105 4.41524 30.6226 4.52408 31.9029 4.73881C33.0934 4.93802 34.2202 4.13549 34.4197 2.9448C34.6194 1.75433 33.8162 0.627569 32.6257 0.42792C15.9043 -2.61852 -0.226892 11.0197 0.0275063 28.0198C-0.30426 43.086 13.1216 56.3248 28.1503 55.9939C29.5699 55.9864 30.9964 55.8711 32.3901 55.6513C36.4533 55.0915 39.0859 50.6324 37.6769 46.7902C36.0749 42.3828 39.491 37.3906 44.1917 37.3122C45.0778 37.2812 45.947 37.4097 46.7734 37.6936C48.6807 38.3488 50.7595 38.1327 52.4764 37.0996C54.1738 36.0783 55.3248 34.3679 55.6344 32.4068C55.8543 31.0133 55.9695 29.587 55.977 28.1675C55.984 26.8103 55.892 25.4444 55.7032 24.1075Z" fill="black"/>
    <path d="M44.1595 21.1329C39.6739 21.2069 35.5993 17.5792 35.2552 13.1031C35.0298 10.7438 35.7428 8.43857 37.2619 6.61255C39.3296 4.12747 41.8154 3.28734 44.2195 2.47508C45.6523 1.99087 47.1339 1.49016 48.7168 0.613103C50.1507 -0.181235 51.7993 -0.149872 53.2401 0.698995C54.9031 1.67889 55.9778 3.58993 55.9778 5.56785C55.9778 8.47507 54.9366 12.1791 53.3253 15.0045C51.0714 18.9564 47.8163 21.1329 44.1595 21.1329ZM50.8967 4.41508C50.8742 4.41508 50.8576 4.42426 50.8353 4.4365C48.907 5.50491 47.1601 6.09523 45.6189 6.61604C43.4596 7.34569 41.8995 7.87295 40.622 9.4083C39.8535 10.332 39.4927 11.4967 39.6064 12.6876C39.7205 13.8822 40.2978 14.9617 41.2321 15.7272C44.5609 18.2636 47.9649 15.7878 49.5281 12.8391C50.964 10.3214 51.6067 7.3729 51.6067 5.56774C51.6067 5.07556 51.305 4.63211 51.0213 4.46491C50.9586 4.4282 50.9235 4.41508 50.8967 4.41508ZM27.5656 8.78454C26.0569 8.78454 24.8337 10.0077 24.8337 11.5165C24.9677 15.1364 30.1642 15.1354 30.2976 11.5165C30.2976 10.0077 29.0744 8.78454 27.5656 8.78454ZM17.7307 13.0464C16.2219 13.0464 14.9987 14.2695 14.9987 15.7783C15.1327 19.3982 20.3292 19.3972 20.4626 15.7783C20.4626 14.2695 19.2395 13.0464 17.7307 13.0464ZM11.939 21.6793C10.4302 21.6793 9.20703 22.9024 9.20703 24.4112C9.34101 28.0311 14.5375 28.0302 14.6709 24.4112C14.6709 22.9024 13.4478 21.6793 11.939 21.6793ZM10.7369 34.6833C10.7369 36.1921 11.9601 37.4152 13.4689 37.4152C17.0888 37.2813 17.0878 32.0848 13.4689 31.9514C11.9601 31.9514 10.7369 33.1745 10.7369 34.6833Z" fill="#F22E3E"/>
    </g>
    <defs>
    <clipPath id="clip0_116_14662">
    <rect width="56" height="56" fill="white"/>
    </clipPath>
    </defs>
</svg>
