<svg width="28" height="28" viewBox="0 0 28 28" fill="none" xmlns="http://www.w3.org/2000/svg">
<g clip-path="url(#clip0_224_34428)">
<path d="M4.32031 21.4375V15.4902C4.32031 14.2924 4.7063 13.1767 5.35938 12.2655V10.1426C2.89056 10.6703 1.03906 12.8638 1.03906 15.4901V21.4375C1.03906 24.4579 3.48748 26.9063 6.50781 26.9063L9.35473 26.8891C6.53751 26.6677 4.32031 24.3116 4.32031 21.4375Z" fill="#CCCCCC"/>
<path d="M21.4375 28H6.5625C2.94394 28 0 25.0561 0 21.4375V14.875C0 13.4144 0.556773 12.0435 1.56773 11.0148C2.32745 10.2417 3.27966 9.72748 4.32031 9.51568V6.5625C4.32031 2.94394 7.26425 0 10.8828 0H21.4375C25.0561 0 28 2.94394 28 6.5625V21.4375C28 25.0561 25.0561 28 21.4375 28ZM4.32031 11.7802C3.06491 12.2264 2.1875 13.4273 2.1875 14.875V21.4375C2.1875 23.8499 4.15013 25.8125 6.5625 25.8125H21.4375C23.8499 25.8125 25.8125 23.8499 25.8125 21.4375V6.5625C25.8125 4.15013 23.8499 2.1875 21.4375 2.1875H10.8828C8.47044 2.1875 6.50781 4.15013 6.50781 6.5625V21.6562C6.50781 22.2603 6.01814 22.75 5.41406 22.75C4.80998 22.75 4.32031 22.2603 4.32031 21.6562V11.7802ZM23.625 7.05469C23.625 6.45061 23.1353 5.96094 22.5312 5.96094H9.78906C9.18498 5.96094 8.69531 6.45061 8.69531 7.05469C8.69531 7.65877 9.18498 8.14844 9.78906 8.14844H22.5312C23.1353 8.14844 23.625 7.65877 23.625 7.05469ZM23.6797 17.2812C23.6797 16.6772 23.19 16.1875 22.5859 16.1875H18.3203C17.7162 16.1875 17.2266 16.6772 17.2266 17.2812C17.2266 17.8853 17.7162 18.375 18.3203 18.375H22.5859C23.19 18.375 23.6797 17.8853 23.6797 17.2812ZM15.0938 17.2812C15.0938 16.6772 14.6041 16.1875 14 16.1875H9.78906C9.18498 16.1875 8.69531 16.6772 8.69531 17.2812C8.69531 17.8853 9.18498 18.375 9.78906 18.375H14C14.6041 18.375 15.0938 17.8853 15.0938 17.2812ZM15.0938 21.6562C15.0938 21.0522 14.6041 20.5625 14 20.5625H9.78906C9.18498 20.5625 8.69531 21.0522 8.69531 21.6562C8.69531 22.2603 9.18498 22.75 9.78906 22.75H14C14.6041 22.75 15.0938 22.2603 15.0938 21.6562ZM21.4375 21.6562C21.4375 21.0522 20.9478 20.5625 20.3438 20.5625H18.3203C17.7162 20.5625 17.2266 21.0522 17.2266 21.6562C17.2266 22.2603 17.7162 22.75 18.3203 22.75H20.3438C20.9478 22.75 21.4375 22.2603 21.4375 21.6562Z" fill="black"/>
<path d="M22.5859 14H14.6562C14.0522 14 13.5625 13.5103 13.5625 12.9062C13.5625 12.3022 14.0522 11.8125 14.6562 11.8125H22.5859C23.19 11.8125 23.6797 12.3022 23.6797 12.9062C23.6797 13.5103 23.19 14 22.5859 14ZM8.69531 12.7969C8.69531 13.5519 9.30743 14.1641 10.0625 14.1641C10.8176 14.1641 11.4297 13.5519 11.4297 12.7969C11.4297 12.0418 10.8176 11.4297 10.0625 11.4297C9.30743 11.4297 8.69531 12.0418 8.69531 12.7969Z" fill="#F22E3E"/>
</g>
<defs>
<clipPath id="clip0_224_34428">
<rect width="28" height="28" fill="white"/>
</clipPath>
</defs>
</svg>
