<svg width="300" height="300" viewBox="0 0 300 300" fill="none" xmlns="http://www.w3.org/2000/svg">
<path d="M245 0H55.16C24.7 0 0 24.69 0 55.16C0 85.45 24.55 110 54.84 110H55.18C56.95 83.36 72.61 60.53 94.99 48.68C105.45 43.14 117.37 40 130.03 40C169.76 40 202.25 70.92 204.81 110H204.75C202.22 81.97 178.68 60 149.99 60C121.3 60 97.75 81.97 95.23 110H94.99V244.84C94.99 275.3 119.68 300 150.15 300C180.44 300 204.99 275.45 204.99 245.16V110H244.99C275.37 110 299.99 85.38 299.99 55C299.99 24.62 275.37 0 244.99 0H245Z" fill="white"/>
</svg>
