<svg width="260" height="300" viewBox="0 0 260 300" fill="none" xmlns="http://www.w3.org/2000/svg">
<path d="M184.9 90C226.38 90 260 123.62 260 165.1V129.99C260 58.2 201.8 0 130.01 0C123.21 0 116.52 0.52 110 1.53C47.7 11.15 0 65.01 0 130.01V170.01C0 186.19 2.96 201.68 8.37 215.96C21.55 250.83 49.2901 278.54 84.1801 291.68C92.4201 294.78 101.06 297.08 110 298.46C116.52 299.47 123.19 299.99 129.99 299.99C146.17 299.99 161.66 297.02 175.96 291.62C210.81 278.45 238.5 250.73 251.66 215.88C256.67 202.59 259.58 188.27 259.96 173.32C259.07 143.72 234.82 119.99 205 119.99C175.18 119.99 150 144.61 150 174.99V189.99C150 201.04 141.05 209.99 130 209.99C118.95 209.99 110 201.04 110 189.99V164.89C110 123.52 143.53 89.99 184.9 89.99V90Z" fill="white"/>
</svg>
