<svg width="260" height="300" viewBox="0 0 260 300" fill="none" xmlns="http://www.w3.org/2000/svg">
<path d="M205 0H55C24.62 0 0 24.62 0 55V244.84C0 275.3 24.69 300 55.16 300C85.45 300 110 275.45 110 245.16V144.9C110 125.23 117.6 107.34 130 93.97C135.73 87.8 142.49 82.59 150 78.63C160.42 73.13 172.29 70 184.9 70C186.62 70 188.31 70.08 190 70.19C191.92 70.32 193.82 70.51 195.7 70.78C169.77 75.16 150.02 97.7 150 124.88V124.92C150 155.34 174.66 180 205.08 180H205.24C232.37 180 254.88 160.27 259.23 134.38C259.64 131.91 259.89 129.39 259.96 126.82C259.99 127.87 260 128.93 260 129.99V55C260 24.62 235.38 0 205 0Z" fill="white"/>
<path d="M205.08 190H204.92C186.98 190 171.06 198.6 161.03 211.9C154.1 221.09 149.99 232.52 149.99 244.92C149.99 258.25 154.73 270.47 162.6 280C172.7 292.22 187.97 300 205.06 300H205.22C222.27 300 237.49 292.21 247.53 280C255.31 270.54 259.98 258.44 259.98 245.24V244.93C259.98 235.95 257.81 227.49 254 220.01C244.92 202.21 226.42 190.01 205.06 190.01L205.08 190Z" fill="white"/>
</svg>
