<svg width="260" height="300" viewBox="0 0 260 300" fill="none" xmlns="http://www.w3.org/2000/svg">
<path d="M205 0H130C123.2 0 116.52 0.53 110 1.53C47.7 11.15 0 65.01 0 130.01V244.84C0 275.3 24.69 300 55.16 300C85.45 300 110 275.45 110 245.16V144.9C110 125.23 117.6 107.34 130 93.97C135.73 87.8 142.49 82.59 150 78.63C150.13 78.56 150.26 78.5 150.4 78.43C160.73 73.06 172.46 70 184.9 70C186.62 70 188.31 70.08 190 70.19C191.92 70.32 193.82 70.51 195.7 70.78C169.77 75.16 150.02 97.7 150 124.88V124.92V244.92C150 258.25 154.74 270.47 162.61 280C172.71 292.22 187.98 300 205.07 300H205.23C222.28 300 237.5 292.21 247.54 280C255.32 270.54 259.99 258.44 259.99 245.24V55C259.99 24.62 235.37 0 204.99 0H205Z" fill="white"/>
</svg>
