<svg width="260" height="300" viewBox="0 0 260 300" fill="none" xmlns="http://www.w3.org/2000/svg">
<path d="M130.01 0C123.21 0 116.52 0.52 110 1.53C47.7 11.16 0 65.01 0 130.01V244.84C0 275.3 24.69 300 55.16 300C85.45 300 110 275.45 110 245.16V164.9C110 123.53 143.53 90 184.9 90C226.38 90 260 123.62 260 165.1V129.99C260 58.2 201.8 0 130.01 0Z" fill="white"/>
<path d="M205 120C174.62 120 150 144.62 150 175V244.84C150 275.3 174.69 300 205.16 300C235.45 300 260 275.45 260 245.16V175C260 144.62 235.38 120 205 120Z" fill="white"/>
</svg>
