<svg width="14" height="13" viewBox="0 0 14 13" fill="none" xmlns="http://www.w3.org/2000/svg">
<path d="M13.2125 11.8516L9.15469 7.79375C9.78438 6.97969 10.125 5.98438 10.125 4.9375C10.125 3.68438 9.63594 2.50937 8.75156 1.62344C7.86719 0.7375 6.68906 0.25 5.4375 0.25C4.18594 0.25 3.00781 0.739062 2.12344 1.62344C1.2375 2.50781 0.75 3.68438 0.75 4.9375C0.75 6.18906 1.23906 7.36719 2.12344 8.25156C3.00781 9.1375 4.18438 9.625 5.4375 9.625C6.48438 9.625 7.47813 9.28438 8.29219 8.65625L12.35 12.7125C12.3619 12.7244 12.376 12.7338 12.3916 12.7403C12.4071 12.7467 12.4238 12.7501 12.4406 12.7501C12.4575 12.7501 12.4741 12.7467 12.4897 12.7403C12.5052 12.7338 12.5194 12.7244 12.5312 12.7125L13.2125 12.0328C13.2244 12.0209 13.2338 12.0068 13.2403 11.9912C13.2467 11.9757 13.2501 11.959 13.2501 11.9422C13.2501 11.9254 13.2467 11.9087 13.2403 11.8931C13.2338 11.8776 13.2244 11.8635 13.2125 11.8516ZM7.9125 7.4125C7.25 8.07344 6.37187 8.4375 5.4375 8.4375C4.50312 8.4375 3.625 8.07344 2.9625 7.4125C2.30156 6.75 1.9375 5.87187 1.9375 4.9375C1.9375 4.00312 2.30156 3.12344 2.9625 2.4625C3.625 1.80156 4.50312 1.4375 5.4375 1.4375C6.37187 1.4375 7.25156 1.8 7.9125 2.4625C8.57344 3.125 8.9375 4.00312 8.9375 4.9375C8.9375 5.87187 8.57344 6.75156 7.9125 7.4125Z" fill="#B3B3B3"/>
</svg>
