<svg width="20" height="20" viewBox="0 0 20 20" fill="none" xmlns="http://www.w3.org/2000/svg">
<path d="M13.2141 5.39294L6.68387 8.65807M6.68387 8.65807C6.19134 7.67492 5.17449 7 4 7C2.34315 7 1 8.34315 1 10C1 11.6569 2.34315 13 4 13C5.17449 13 6.19134 12.3251 6.68387 11.3419M6.68387 8.65807C6.88616 9.06185 7 9.51763 7 10C7 10.4824 6.88616 10.9381 6.68387 11.3419M13.2141 14.6071L6.68387 11.3419M19 4C19 5.65685 17.6569 7 16 7C14.3431 7 13 5.65685 13 4C13 2.34315 14.3431 1 16 1C17.6569 1 19 2.34315 19 4ZM19 16C19 17.6569 17.6569 19 16 19C14.3431 19 13 17.6569 13 16C13 14.3431 14.3431 13 16 13C17.6569 13 19 14.3431 19 16Z" stroke="black" stroke-width="2" stroke-linecap="round"/>
</svg>
