<svg width="56" height="56" viewBox="0 0 56 56" fill="none" xmlns="http://www.w3.org/2000/svg">
<g clip-path="url(#clip0_114_10910)">
<path d="M8.75293 42.8689V19.4161C5.14409 18.4871 2.43812 15.314 2.20912 11.4727L2.19141 11.4912V42.8689C2.19141 48.9133 7.09133 53.8131 13.1356 53.8131H19.6971C13.6529 53.8131 8.75293 48.9133 8.75293 42.8689Z" fill="#CCCCCC"/>
<path d="M53.8086 15.4279C55.0166 15.4279 55.9958 14.4487 55.9958 13.2407V10.9442C55.9958 4.90955 51.0861 0 45.0515 0C45.0515 0 10.7666 0.00513986 10.6821 0.0150915C7.7962 0.11592 5.02407 1.3543 3.02586 3.44808C0.977684 5.59414 -0.0900953 8.38541 0.0104054 11.3222C0.00624979 11.3779 0.00406261 42.8686 0.00406261 42.8686C0.00406261 50.1093 5.89478 56 13.1354 56H45.0516C51.0862 56 55.9958 51.0905 55.9958 45.0558V28.4499C55.9958 22.4153 51.0862 17.5057 45.0516 17.5057H10.9398C7.42821 17.5057 4.54923 14.761 4.38552 11.2572C4.3023 9.4755 4.94325 7.77475 6.19016 6.46813C7.45511 5.14271 9.23165 4.38266 11.0641 4.38266C11.1287 4.38266 45.0513 4.37435 45.0513 4.37435C48.674 4.37435 51.6212 7.32157 51.6212 10.9442V13.2407C51.6214 14.4487 52.6006 15.4279 53.8086 15.4279ZM10.9398 21.8801H45.0515C48.6741 21.8801 51.6213 24.8273 51.6213 28.4499V45.0558C51.6213 48.6784 48.6741 51.6257 45.0515 51.6257H13.1354C8.3068 51.6257 4.37841 47.6973 4.37841 42.8686V19.7017C6.20777 21.072 8.48079 21.8801 10.9398 21.8801Z" fill="black"/>
<path d="M47.2462 36.7537C47.2462 38.2636 46.0222 39.4876 44.5123 39.4876C43.0024 39.4876 41.7783 38.2636 41.7783 36.7537C41.7783 35.2437 43.0024 34.0197 44.5123 34.0197C46.0222 34.0197 47.2462 35.2437 47.2462 36.7537ZM47.2462 10.945C47.2462 9.73701 46.267 8.75781 45.0591 8.75781H10.9391C9.73115 8.75781 8.75195 9.73701 8.75195 10.945C8.75195 12.153 9.73115 13.1322 10.9391 13.1322H45.0591C46.2669 13.1322 47.2462 12.153 47.2462 10.945Z" fill="#F22E3E"/>
</g>
<defs>
<clipPath id="clip0_114_10910">
<rect width="56" height="56" fill="white"/>
</clipPath>
</defs>
</svg>
